<?xml version="1.0" encoding="utf-8"?>
<svg id="svg2" viewBox="0 -12.885 438.44 439.509" xmlns="http://www.w3.org/2000/svg" xmlns:bx="https://boxy-svg.com">
  <desc>Source: openclipart.org/detail/209545</desc>
  <ellipse style="stroke: rgb(0, 0, 0);" cx="84.543" cy="113.892" rx="49.469" ry="49.469"/>
  <g transform="matrix(0.170595, 0, 0, 0.170595, 29.767139, 75.560608)" style="">
    <g>
      <g>
        <g>
          <path style="paint-order: stroke; stroke: rgb(0, 0, 0); stroke-width: 0px; fill: rgb(255, 255, 255);" d="M 298.792 429.964 C 298.792 429.964 352.68830302953637 168.58666779956212 303.445 120.569 C 257.04916607294814 75.32792956537513 29.8454203182568 121.15104606847137 28.988 131.619 C 28.223270724665838 140.95532041816364 197.59837707119607 131.00959401443342 242.972 175.819 C 292.48652040435945 224.7178117713449 298.792 429.964 298.792 429.964 C 298.79200000000003 429.96400000000006 298.792 429.964 298.792 429.964 C 298.792 429.964 298.79200000000003 429.96400000000006 298.792 429.964" bx:d="M 298.792 429.964 R 303.445 120.569 R 28.988 131.619 R 242.972 175.819 R 298.792 429.964 R 298.792 429.964 Z 1@ef9826e0"/>
        </g>
      </g>
      <path style="stroke: rgb(0, 0, 0); fill: rgb(255, 255, 255);" d="M 163.205 240.989 C 163.205 240.989 216.81334327943114 209.94960706093093 236.218 220.947 C 268.3850595312991 239.17735565401918 294.7875404280371 419.77527006737625 292.052 421.374 C 291.7821146752771 421.5317288869827 291.2421708466544 420.9473812985754 290.619 419.943 C 285.0519181215814 410.97038365194595 267.32921781025294 294.6101365473668 239.081 266.759 C 219.24626102936983 247.20307519217403 166.19475204106422 246.5197841286515 163.205 242.421 C 162.80420554719396 241.87153304774117 163.205 240.989 163.205 240.989 C 163.205 240.989 163.205 240.989 163.205 240.989" bx:d="M 163.205 240.989 R 236.218 220.947 R 292.052 421.374 R 290.619 419.943 R 239.081 266.759 R 163.205 242.421 R 163.205 240.989 Z 1@ec2a15a6"/>
    </g>
    <g style="" transform="matrix(-1, 0, 0, 1, 663.834106, -4.294868)">
      <g>
        <g>
          <path style="paint-order: stroke; stroke: rgb(0, 0, 0); stroke-width: 0px; fill: rgb(255, 255, 255);" d="M 298.792 429.964 C 298.792 429.964 352.68830302953637 168.58666779956212 303.445 120.569 C 257.04916607294814 75.32792956537513 29.8454203182568 121.15104606847137 28.988 131.619 C 28.223270724665838 140.95532041816364 197.59837707119607 131.00959401443342 242.972 175.819 C 292.48652040435945 224.7178117713449 298.792 429.964 298.792 429.964 C 298.79200000000003 429.96400000000006 298.792 429.964 298.792 429.964 C 298.792 429.964 298.79200000000003 429.96400000000006 298.792 429.964" bx:d="M 298.792 429.964 R 303.445 120.569 R 28.988 131.619 R 242.972 175.819 R 298.792 429.964 R 298.792 429.964 Z 1@ef9826e0"/>
        </g>
      </g>
      <path style="stroke: rgb(0, 0, 0); fill: rgb(255, 255, 255);" d="M 163.205 240.989 C 163.205 240.989 216.81334327943114 209.94960706093093 236.218 220.947 C 268.3850595312991 239.17735565401918 294.7875404280371 419.77527006737625 292.052 421.374 C 291.7821146752771 421.5317288869827 291.2421708466544 420.9473812985754 290.619 419.943 C 285.0519181215814 410.97038365194595 267.32921781025294 294.6101365473668 239.081 266.759 C 219.24626102936983 247.20307519217403 166.19475204106422 246.5197841286515 163.205 242.421 C 162.80420554719396 241.87153304774117 163.205 240.989 163.205 240.989 C 163.205 240.989 163.205 240.989 163.205 240.989" bx:d="M 163.205 240.989 R 236.218 220.947 R 292.052 421.374 R 290.619 419.943 R 239.081 266.759 R 163.205 242.421 R 163.205 240.989 Z 1@ec2a15a6"/>
    </g>
  </g>
  <text style="fill: rgb(51, 51, 51); font-family: &quot;Bakbak One&quot;; font-size: 54.6px; white-space: pre;" x="155.561" y="130.171">RazorBills</text>
  <defs>
    <style bx:fonts="Bakbak One">@import url(https://fonts.googleapis.com/css2?family=Bakbak+One%3Aital%2Cwght%400%2C400&amp;display=swap);</style>
  </defs>
</svg>